<svg width="12" height="12" viewBox="0 0 12 12" fill="none" xmlns="http://www.w3.org/2000/svg">
  <path
    d="M9.55231 2.4477C9.81591 2.71131 9.81591 3.13869 9.55231 3.4023L6.95475 6L9.55231 8.59771C9.79394 8.83935 9.81408 9.21861 9.61272 9.48318L9.55231 9.55231C9.2887 9.81591 8.86132 9.81591 8.59771 9.55231L6 6.95475L3.4023 9.55231C3.13869 9.81591 2.71131 9.81591 2.4477 9.55231C2.1841 9.2887 2.1841 8.86132 2.4477 8.59771L5.04525 6L2.4477 3.4023C2.20607 3.16066 2.18593 2.7814 2.38729 2.51683L2.4477 2.4477C2.71131 2.1841 3.13869 2.1841 3.4023 2.4477L6 5.04525L8.59771 2.4477C8.86132 2.1841 9.2887 2.1841 9.55231 2.4477Z"
    fill="#333333" />
</svg>