<svg width="24" height="24" viewBox="0 0 24 24" fill="none" xmlns="http://www.w3.org/2000/svg">
  <rect x="1.5" y="4.5" width="21" height="15" rx="2" fill="white" />
  <mask id="mask0_724_267" style="mask-type:luminance" maskUnits="userSpaceOnUse" x="1" y="4" width="22" height="16">
    <rect x="1.5" y="4.5" width="21" height="15" rx="2" fill="white" />
  </mask>
  <g mask="url(#mask0_724_267)">
    <rect x="1.5" y="4.5" width="21" height="15" fill="#0A17A7" />
    <path fillRule="evenodd" clipRule="evenodd"
      d="M6.50535 14.5L-0.580192 19.2793L0.538193 20.9373L9.50004 14.8925V20.5H14.5V14.8925L23.4619 20.9373L24.5803 19.2793L17.4947 14.5H22.5V9.5H17.4947L24.5803 4.72074L23.4619 3.06267L14.5 9.10752V3.5H9.50004V9.10752L0.538185 3.06267L-0.5802 4.72075L6.50534 9.5H1.50004V14.5H6.50535Z"
      fill="white" />
    <path d="M15.501 9.24915L25 3" stroke="#DB1F35" strokeWidth="0.666667" strokeLinecap="round" />
    <path d="M16.5096 14.7731L25.025 20.5128" stroke="#DB1F35" strokeWidth="0.666667" strokeLinecap="round" />
    <path d="M7.50415 9.23285L-1.37811 3.24677" stroke="#DB1F35" strokeWidth="0.666667" strokeLinecap="round" />
    <path d="M8.46753 14.7037L-1.37811 21.2328" stroke="#DB1F35" strokeWidth="0.666667" strokeLinecap="round" />
    <path fillRule="evenodd" clipRule="evenodd" d="M1.5 13.5H10.5V19.5H13.5V13.5H22.5V10.5H13.5V4.5H10.5V10.5H1.5V13.5Z"
      fill="#E6273E" />
  </g>
</svg>